<?xml version="1.0" encoding="UTF-8" standalone="no"?>
<svg
   data-v-6805eed4=""
   version="1.0"
   width="200"
   height="56"
   viewBox="0 0 200 56"
   preserveAspectRatio="xMidYMid"
   color-interpolation-filters="sRGB"
   id="svg176"
   sodipodi:docname="blue_added_logo_main_light.svg"
   inkscape:version="1.2.2 (732a01da63, 2022-12-09)"
   xmlns:inkscape="http://www.inkscape.org/namespaces/inkscape"
   xmlns:sodipodi="http://sodipodi.sourceforge.net/DTD/sodipodi-0.dtd"
   xmlns:xlink="http://www.w3.org/1999/xlink"
   xmlns="http://www.w3.org/2000/svg"
   xmlns:svg="http://www.w3.org/2000/svg">
  <sodipodi:namedview
     id="namedview178"
     pagecolor="#ffffff"
     bordercolor="#000000"
     borderopacity="0.25"
     inkscape:showpageshadow="2"
     inkscape:pageopacity="0"
     inkscape:pagecheckerboard="0"
     inkscape:deskcolor="#d1d1d1"
     showgrid="false"
     inkscape:zoom="2.26"
     inkscape:cx="49.336283"
     inkscape:cy="39.823009"
     inkscape:window-width="1366"
     inkscape:window-height="745"
     inkscape:window-x="-8"
     inkscape:window-y="-8"
     inkscape:window-maximized="1"
     inkscape:current-layer="svg176"
     showguides="true" />
  <rect
     data-v-6805eed4=""
     x="0"
     y="0"
     width="100%"
     height="100%"
     fill="url(#watermark)"
     fill-opacity="1"
     class="watermarklayer"
     id="rect93" />
  <g
     data-v-6805eed4=""
     fill="#333333"
     class="iconlinesvg-g iconlinesvg"
     transform="translate(0.53847687,1.1482331)"
     id="g172">
    <g
       class="tp-name"
       id="g158">
      <g
         transform="translate(0,3.4655453)"
         id="g99">
        <g
           data-gra="path-name"
           fill="#333333"
           id="g97">
          <path
             d="M 31.75,-1.9 21.03,-31.42 c -0.47,-1.21 -1.07,-1.54 -2.42,-1.54 h -5.29 c -1.34,0 -1.95,0.28 -2.41,1.63 L 0.23,-1.9 C -0.23,-0.65 0.05,0 1.49,0 h 4.87 c 2.32,0 2.92,-0.51 3.39,-1.95 l 1.06,-3.34 h 10.03 l 1.07,3.34 C 22.28,-0.51 22.98,0 25.39,0 h 5.01 c 1.39,0 1.81,-0.65 1.35,-1.9 z m -14.72,-16.11 1.72,5.43 h -5.8 l 1.72,-5.48 c 0.93,-3.11 0.88,-6.45 0.88,-6.45 h 0.46 c 0,0 0.1,3.34 1.02,6.5 z"
             transform="translate(-0.02581854,32.955132)"
             id="path95"
             style="fill:#f8f8f8;fill-opacity:1" />
        </g>
      </g>
      <g
         transform="translate(35,3.4655453)"
         id="g105">
        <g
           data-gra="path-name"
           fill="#333333"
           id="g103">
          <path
             d="M 2.32,-31.1 V -1.86 C 2.32,-0.46 2.78,0 4.18,0 h 5.47 c 1.4,0 1.86,-0.46 1.86,-1.86 V -31.1 c 0,-1.39 -0.46,-1.86 -1.86,-1.86 H 4.18 c -1.4,0 -1.86,0.47 -1.86,1.86 z"
             transform="translate(-2.3207839,32.955132)"
             id="path101"
             style="fill:#f8f8f8;fill-opacity:1" />
        </g>
      </g>
      <g
         transform="translate(48,3.4655453)"
         id="g111">
        <g
           data-gra="path-name"
           fill="#333333"
           id="g109">
          <path
             d=""
             transform="translate(0,32.955132)"
             id="path107" />
        </g>
      </g>
      <g
         transform="translate(65,3.4655453)"
         id="g117">
        <g
           data-gra="path-name"
           fill="#333333"
           id="g115">
          <path
             d="m 41.73,-32.96 h -5.15 c -1.68,0 -2.37,0.28 -2.65,1.72 l -1.95,12.16 c -0.37,2.56 -0.65,6.92 -0.7,8.22 h -0.37 c -0.04,-1.39 -0.32,-5.57 -0.88,-8.22 L 27.2,-31.24 c -0.33,-1.44 -1.16,-1.72 -2.6,-1.72 h -5.01 c -1.49,0 -2.28,0.24 -2.6,1.72 l -2.88,12.16 c -0.56,2.51 -0.88,6.83 -0.88,8.22 H 12.9 c 0,-1.3 -0.23,-5.8 -0.65,-8.22 l -2.04,-12.16 c -0.28,-1.44 -0.97,-1.72 -2.6,-1.72 H 1.9 c -1.44,0 -1.58,0.61 -1.25,1.91 L 7.98,-1.53 C 8.26,-0.28 9.05,0 10.4,0 h 5.33 c 1.3,0 2.05,-0.28 2.42,-1.62 l 2.46,-10.73 c 0.65,-3.01 0.93,-5.71 1.02,-8.35 H 22 c 0.05,2.64 0.28,5.43 0.88,8.35 l 2.51,10.82 C 25.67,-0.32 26.46,0 27.8,0 h 5.43 c 1.3,0 2.05,-0.28 2.37,-1.62 l 7.38,-29.43 c 0.33,-1.3 0.19,-1.91 -1.25,-1.91 z"
             transform="translate(-0.5044052,32.955132)"
             id="path113"
             style="fill:#f8f8f8;fill-opacity:1" />
        </g>
      </g>
      <g
         transform="translate(111)"
         id="g144">
        <g
           id="g142">
          <g
             class="imagesvg"
             id="g140">
            <g
               id="g138">
              <rect
                 fill="#333333"
                 fill-opacity="0"
                 stroke-width="2"
                 x="0"
                 y="0"
                 width="34.070412"
                 height="39.886223"
                 class="image-rect"
                 id="rect119" />
              <svg
                 filter="url(#colors7453310903)"
                 x="0"
                 y="0"
                 width="34.070412"
                 height="39.886223"
                 filtersec="colorsf440863622"
                 class="image-svg-svg primary"
                 style="overflow:visible"
                 version="1.1"
                 id="svg125">
                <svg
                   viewBox="0.61385584 0.34100008 83.287193 97.503998"
                   version="1.1"
                   id="svg123"
                   width="100%"
                   height="100%" />
              </svg>
              <defs
                 id="defs136">
                <color-profile
                   name="sRGB-IEC61966-2.1"
                   xlink:href="file:///C:/Windows/system32/spool/drivers/color/sRGB%20Color%20Space%20Profile.icm"
                   id="color-profile3087" />
                <filter
                   id="colors7453310903"
                   x="0"
                   y="0"
                   width="1"
                   height="1">
                  <feColorMatrix
                     type="matrix"
                     values="0 0 0 0 0.19921875  0 0 0 0 0.19921875  0 0 0 0 0.19921875  0 0 0 1 0"
                     class="icon-fecolormatrix"
                     id="feColorMatrix127" />
                </filter>
                <filter
                   id="colorsf440863622">
                  <feColorMatrix
                     type="matrix"
                     values="0 0 0 0 0.99609375  0 0 0 0 0.99609375  0 0 0 0 0.99609375  0 0 0 1 0"
                     class="icon-fecolormatrix"
                     id="feColorMatrix130" />
                </filter>
                <filter
                   id="colorsb1560005631">
                  <feColorMatrix
                     type="matrix"
                     values="0 0 0 0 0  0 0 0 0 0  0 0 0 0 0  0 0 0 1 0"
                     class="icon-fecolormatrix"
                     id="feColorMatrix133" />
                </filter>
              </defs>
            </g>
          </g>
        </g>
      </g>
      <g
         transform="translate(149,3.4655453)"
         id="g150">
        <g
           data-gra="path-name"
           fill="#333333"
           id="g148">
          <path
             d="M 9.56,-32.96 H 4.32 c -1.49,0 -2,0.52 -2,1.95 v 29.06 c 0,1.44 0.51,1.95 2,1.95 H 22.7 c 1.44,0 1.95,-0.51 1.95,-1.95 v -4.22 c 0,-1.49 -0.51,-1.95 -1.95,-1.95 H 11.51 v -22.89 c 0,-1.43 -0.46,-1.95 -1.95,-1.95 z"
             transform="translate(-2.3207839,32.955132)"
             id="path146"
             style="fill:#f8f8f8;fill-opacity:1" />
        </g>
      </g>
      <g
         transform="translate(175,3.4655453)"
         id="g156">
        <g
           data-gra="path-name"
           fill="#333333"
           id="g154">
          <path
             d="M 9.56,-32.96 H 4.32 c -1.49,0 -2,0.52 -2,1.95 v 29.06 c 0,1.44 0.51,1.95 2,1.95 H 22.7 c 1.44,0 1.95,-0.51 1.95,-1.95 v -4.22 c 0,-1.49 -0.51,-1.95 -1.95,-1.95 H 11.51 v -22.89 c 0,-1.43 -0.46,-1.95 -1.95,-1.95 z"
             transform="translate(-2.3207839,32.955132)"
             id="path152"
             style="fill:#f8f8f8;fill-opacity:1" />
        </g>
      </g>
    </g>
    <g
       data-gra="path-slogan"
       fill-rule=""
       class="tp-slogan"
       fill="#333333"
       transform="translate(5,45.886223)"
       id="g170">
      <rect
         x="0"
         height="1"
         y="3.5050001"
         width="80.134155"
         id="rect160"
         style="fill:#f8f8f8;fill-opacity:1" />
      <rect
         height="1"
         y="3.5050001"
         width="80.134155"
         x="107.19415"
         id="rect162"
         style="fill:#f8f8f8;fill-opacity:1" />
      <g
         transform="translate(83.134154)"
         id="g168">
        <g
           id="g166">
          <path
             d="M 1.08,-7.87 V 0 h 1 V -3.71 H 5.74 V 0 h 1 v -7.87 h -1 v 3.3 H 2.08 v -3.3 z m 7.79,0 v 4.62 c 0,0.63 0.07,1.16 0.21,1.59 0.15,0.44 0.35,0.79 0.6,1.05 0.25,0.27 0.55,0.46 0.9,0.58 0.35,0.12 0.72,0.17 1.12,0.17 0.4,0 0.77,-0.05 1.12,-0.17 0.34,-0.12 0.64,-0.31 0.89,-0.58 0.25,-0.26 0.45,-0.61 0.59,-1.05 0.15,-0.43 0.22,-0.96 0.22,-1.59 v -4.62 h -0.96 v 4.64 c 0,0.47 -0.05,0.87 -0.14,1.19 -0.1,0.32 -0.23,0.58 -0.4,0.77 -0.17,0.19 -0.36,0.33 -0.59,0.41 -0.22,0.09 -0.47,0.13 -0.73,0.13 -0.26,0 -0.5,-0.04 -0.72,-0.13 C 10.76,-0.94 10.56,-1.08 10.4,-1.27 10.23,-1.46 10.1,-1.72 10.01,-2.04 9.91,-2.36 9.86,-2.76 9.86,-3.23 v -4.64 z m 7.77,0 V 0 h 2.51 c 0.44,0 0.85,-0.05 1.21,-0.14 0.37,-0.1 0.69,-0.24 0.95,-0.44 0.27,-0.19 0.47,-0.43 0.61,-0.72 0.15,-0.28 0.22,-0.62 0.22,-1 0,-0.55 -0.16,-0.98 -0.48,-1.29 -0.32,-0.31 -0.77,-0.51 -1.34,-0.6 v -0.05 c 0.46,-0.12 0.8,-0.33 1.03,-0.65 0.22,-0.32 0.33,-0.67 0.33,-1.06 0,-0.35 -0.06,-0.64 -0.19,-0.88 -0.14,-0.25 -0.32,-0.45 -0.56,-0.6 -0.23,-0.15 -0.52,-0.26 -0.85,-0.33 -0.33,-0.08 -0.7,-0.11 -1.1,-0.11 z m 2.16,3.36 h -1.16 v -2.57 h 1.21 c 0.62,0 1.08,0.09 1.39,0.28 0.31,0.19 0.46,0.5 0.46,0.93 0,0.44 -0.15,0.78 -0.44,1.01 -0.29,0.23 -0.78,0.35 -1.46,0.35 z m 0.21,3.72 h -1.37 v -2.98 h 1.37 c 0.69,0 1.23,0.12 1.59,0.34 0.37,0.23 0.56,0.59 0.56,1.08 0,0.53 -0.19,0.93 -0.57,1.18 -0.37,0.25 -0.9,0.38 -1.58,0.38 z"
             transform="translate(-1.08,7.872)"
             id="path164"
             style="fill:#f8f8f8;fill-opacity:1" />
        </g>
      </g>
    </g>
  </g>
  <defs
     v-gra="od"
     id="defs174">
    <filter
       id="colors7453310903-5"
       x="0"
       y="0"
       width="1"
       height="1">
      <feColorMatrix
         type="matrix"
         values="0 0 0 0 0.19921875  0 0 0 0 0.19921875  0 0 0 0 0.19921875  0 0 0 1 0"
         class="icon-fecolormatrix"
         id="feColorMatrix127-3" />
    </filter>
    <filter
       id="filter1044"
       x="0"
       y="0"
       width="1"
       height="1">
      <feColorMatrix
         type="matrix"
         values="0 0 0 0 0.19921875  0 0 0 0 0.19921875  0 0 0 0 0.19921875  0 0 0 1 0"
         class="icon-fecolormatrix"
         id="feColorMatrix1042" />
    </filter>
    <filter
       id="colorsf440863622-3">
      <feColorMatrix
         type="matrix"
         values="0 0 0 0 0.99609375  0 0 0 0 0.99609375  0 0 0 0 0.99609375  0 0 0 1 0"
         class="icon-fecolormatrix"
         id="feColorMatrix130-3" />
    </filter>
    <filter
       id="colorsb1560005631-1">
      <feColorMatrix
         type="matrix"
         values="0 0 0 0 0  0 0 0 0 0  0 0 0 0 0  0 0 0 1 0"
         class="icon-fecolormatrix"
         id="feColorMatrix133-8" />
    </filter>
  </defs>
  <path
     fill="#333333"
     d="M 145.11055,32.486878 133.71601,4.2160134 133.60557,4.0523985 C 132.5645,2.2430812 130.7012,1.148 128.56464,1.148 c -2.13655,0 -3.99657,1.0979421 -5.03805,2.9043985 l -0.0536,0.110022 -11.39742,28.3240475 c -0.87785,2.027359 -0.65777,4.32797 0.49375,6.08329 1.04148,1.589241 2.73788,2.464242 4.60077,2.464242 h 22.89954 c 1.8629,0 3.5057,-0.821412 4.54719,-2.357062 1.09793,-1.696419 1.31514,-4.053071 0.49374,-6.19006 z m -27.83043,-5.588311 8.71066,-21.5306113 c 0.54734,-0.9314512 1.53237,-1.4787914 2.6303,-1.4787914 1.09794,0 2.02693,0.5473402 2.63071,1.4787914 l 4.54718,11.2846203 c -4.2731,5.752351 -10.95725,9.698251 -18.51844,10.245991 z"
     id="path121-5"
     style="overflow:visible;fill:#33a1de;fill-opacity:1;stroke-width:0.409067" />
</svg>
