<?xml version="1.0" encoding="UTF-8" standalone="no"?>
<svg
   stroke="currentColor"
   fill="currentColor"
   stroke-width="0"
   viewBox="0 0 24 24"
   color="#333"
   style="color: rgb(51, 51, 51);"
   version="1.1"
   id="svg150"
   sodipodi:docname="user-null-profile.svg"
   inkscape:version="1.2.2 (732a01da63, 2022-12-09)"
   xmlns:inkscape="http://www.inkscape.org/namespaces/inkscape"
   xmlns:sodipodi="http://sodipodi.sourceforge.net/DTD/sodipodi-0.dtd"
   xmlns="http://www.w3.org/2000/svg"
   xmlns:svg="http://www.w3.org/2000/svg">
  <defs
     id="defs154" />
  <sodipodi:namedview
     id="namedview152"
     pagecolor="#ffffff"
     bordercolor="#000000"
     borderopacity="0.25"
     inkscape:showpageshadow="2"
     inkscape:pageopacity="0.0"
     inkscape:pagecheckerboard="0"
     inkscape:deskcolor="#d1d1d1"
     showgrid="false"
     inkscape:zoom="22.583333"
     inkscape:cx="10.95941"
     inkscape:cy="15.542435"
     inkscape:window-width="1366"
     inkscape:window-height="745"
     inkscape:window-x="-8"
     inkscape:window-y="-8"
     inkscape:window-maximized="1"
     inkscape:current-layer="svg150" />
  <g
     id="g148"
     transform="matrix(1.2,0,0,1.1999999,-2.3999994,-2.3999993)">
    <path
       d="M 12,2 C 17.52,2 22,6.48 22,12 22,17.52 17.52,22 12,22 6.48,22 2,17.52 2,12 2,6.48 6.48,2 12,2 Z M 6.023,15.416 C 7.491,17.606 9.695,19 12.16,19 c 2.464,0 4.669,-1.393 6.136,-3.584 A 8.968,8.968 0 0 0 12.16,13 8.968,8.968 0 0 0 6.023,15.416 Z M 12,11 a 3,3 0 1 0 0,-6 3,3 0 0 0 0,6 z"
       id="path146" />
  </g>
</svg>
